<?xml version="1.0" standalone="no"?>
<!DOCTYPE svg PUBLIC "-//W3C//DTD SVG 20010904//EN"
 "http://www.w3.org/TR/2001/REC-SVG-20010904/DTD/svg10.dtd">
<svg version="1.0" xmlns="http://www.w3.org/2000/svg"
 width="2527.000000pt" height="2527.000000pt" viewBox="0 0 2527.000000 2527.000000"
 preserveAspectRatio="xMidYMid meet">
<metadata>
Created by potrace 1.14, written by Peter Selinger 2001-2017
</metadata>
<g transform="translate(0.000000,2527.000000) scale(0.100000,-0.100000)"
fill="#000000" stroke="none">
<path d="M2160 21485 c-136 -28 -264 -87 -382 -175 -177 -133 -354 -383 -453
-640 l-37 -95 -241 3 c-181 3 -272 0 -362 -12 -331 -43 -535 -149 -624 -325
-55 -106 -67 -511 -22 -705 23 -97 71 -216 123 -303 46 -78 169 -202 256 -258
121 -77 290 -138 427 -152 78 -8 95 -17 95 -53 0 -16 9 -74 19 -128 76 -390
285 -643 584 -707 l27 -5 0 -103 c0 -267 68 -528 182 -702 117 -178 294 -303
479 -338 l56 -11 42 -135 c205 -651 518 -1033 913 -1116 78 -17 213 -19 273
-5 22 5 41 7 43 5 2 -2 -5 -45 -16 -97 -42 -196 -47 -268 -47 -688 1 -664 26
-829 152 -1003 35 -47 35 -47 14 -65 -24 -20 -79 -195 -152 -480 -276 -1088
-379 -2289 -284 -3332 218 -2383 1377 -4168 3410 -5247 398 -212 780 -374
1125 -478 1399 -422 2941 -480 4308 -164 1091 253 2063 708 2970 1391 101 76
185 138 188 138 3 0 42 -25 86 -56 l80 -57 117 6 c959 53 1890 606 2590 1537
64 86 148 205 185 265 98 156 102 162 194 271 270 319 412 669 412 1013 0 75
-7 149 -19 209 -19 92 -19 93 0 137 41 93 85 309 113 565 37 330 66 974 66
1478 0 202 3 263 13 266 6 2 48 9 92 16 104 15 289 77 402 133 97 49 286 172
317 206 25 27 30 27 117 -10 365 -156 692 -185 990 -88 136 44 270 123 375
221 l51 48 64 -25 c35 -14 111 -39 169 -55 511 -144 948 -26 1175 318 l28 42
71 -68 c125 -120 246 -190 437 -250 197 -63 410 -93 664 -95 148 -1 167 1 250
27 481 149 814 404 934 714 117 304 64 690 -145 1054 l-27 47 51 129 c105 266
162 501 162 670 0 75 -8 129 -34 242 -114 482 -284 839 -513 1080 -109 115
-193 178 -318 240 -352 175 -760 155 -1264 -61 -192 -82 -466 -243 -646 -379
l-40 -30 -110 24 c-174 39 -268 49 -450 49 -269 -1 -494 -51 -733 -164 -244
-114 -500 -322 -662 -537 l-38 -52 -32 50 c-74 115 -207 206 -345 235 -130 27
-320 13 -456 -34 l-57 -19 -6 51 c-10 74 -52 194 -87 249 -42 65 -143 157
-215 195 -115 61 -351 110 -488 101 l-49 -3 -109 179 c-1107 1821 -2522 3097
-4158 3751 -666 266 -1322 418 -2100 487 -219 19 -859 16 -1090 -6 -323 -30
-626 -78 -868 -137 -114 -28 -128 -29 -198 -19 -97 13 -337 13 -462 -1 -721
-78 -1734 -521 -2772 -1212 -91 -61 -188 -128 -217 -149 l-52 -38 -73 29
c-120 47 -260 89 -395 118 -117 25 -147 27 -348 28 -178 0 -237 -4 -310 -19
-113 -24 -271 -78 -352 -121 -44 -23 -63 -29 -63 -19 0 55 -125 354 -183 439
-160 232 -379 372 -613 392 l-71 6 -6 146 c-13 297 -92 506 -252 667 -106 107
-257 189 -399 216 -41 8 -65 17 -62 24 2 6 7 71 11 145 12 228 -24 472 -90
617 -49 107 -95 155 -243 253 -236 157 -478 263 -691 303 -100 19 -280 19
-371 1z m9023 -5402 c11 -151 -19 -369 -66 -473 -30 -66 -220 -251 -337 -329
-110 -73 -290 -165 -413 -211 -54 -21 -84 -37 -81 -45 4 -8 -23 -18 -83 -29
-48 -10 -93 -21 -99 -24 -12 -7 329 -212 530 -320 1002 -538 2137 -627 3156
-250 74 28 186 74 249 104 l115 54 44 -42 c235 -229 531 -752 827 -1464 156
-374 399 -1067 525 -1497 l52 -177 -75 -576 c-42 -317 -78 -579 -81 -582 -3
-3 -158 23 -343 58 l-338 63 0 251 c0 286 -12 385 -75 631 -116 452 -339 843
-670 1175 -392 392 -883 638 -1450 727 -145 23 -556 25 -695 5 -412 -62 -761
-194 -1087 -412 -585 -390 -974 -982 -1102 -1673 -13 -71 -27 -131 -30 -134
-5 -5 -1186 174 -1193 181 -2 2 3 32 11 67 56 242 67 624 27 887 -70 459 -262
897 -546 1247 -171 211 -438 443 -675 585 -741 447 -1672 484 -2450 99 -353
-175 -674 -437 -900 -736 -46 -62 -86 -110 -88 -108 -4 4 25 114 63 241 l25
81 222 166 223 165 34 94 c81 219 258 530 411 723 89 113 268 293 382 385 423
342 946 547 1583 622 61 7 220 12 355 13 l245 0 100 -32 c235 -77 410 -98 795
-98 318 0 413 7 715 51 570 84 1336 294 1980 542 99 39 185 70 191 71 7 1 13
-29 17 -76z m-4923 -2279 c795 -105 1483 -677 1738 -1447 262 -788 44 -1657
-559 -2232 -266 -253 -595 -435 -948 -524 -372 -94 -800 -83 -1164 30 -488
150 -916 482 -1189 921 -380 612 -424 1397 -114 2043 155 323 371 590 638 791
470 352 1014 494 1598 418z m6290 -1099 c449 -77 827 -268 1149 -580 190 -185
323 -367 437 -600 158 -324 222 -627 211 -1005 -7 -275 -48 -480 -143 -720
-447 -1127 -1731 -1660 -2849 -1183 -237 101 -473 262 -664 454 -752 751 -839
1945 -204 2796 208 279 473 497 793 652 216 104 446 172 680 201 113 13 478 5
590 -15z m-8856 -2220 c121 -230 269 -429 466 -625 379 -379 862 -623 1417
-717 86 -14 163 -18 383 -18 301 0 381 9 620 67 729 176 1365 695 1695 1380
l55 115 48 -7 c26 -5 319 -50 652 -101 333 -51 608 -97 612 -103 4 -6 8 -36 8
-66 0 -64 31 -284 54 -385 202 -882 851 -1595 1704 -1875 134 -44 303 -83 459
-107 169 -25 527 -23 711 6 271 41 517 118 757 236 537 263 970 710 1215 1255
23 52 64 160 90 238 27 79 50 146 53 148 5 6 687 -123 695 -131 3 -3 -25 -237
-62 -520 -37 -283 -66 -521 -64 -529 2 -11 250 92 976 404 l974 420 72 0 c81
0 179 -24 277 -69 l66 -30 26 -93 c130 -465 95 -890 -107 -1313 -111 -231
-234 -408 -414 -596 -120 -125 -188 -177 -317 -242 -229 -114 -745 -246 -1140
-292 -71 -8 -148 -15 -170 -15 l-40 0 -305 -567 c-168 -311 -306 -570 -308
-574 -2 -4 17 -22 42 -40 l46 -32 -63 -49 c-515 -400 -1176 -776 -1805 -1027
-1354 -541 -2917 -669 -4447 -366 -671 133 -1087 272 -1650 550 -1936 959
-3067 2534 -3374 4700 -49 344 -92 1062 -75 1258 l7 78 51 -128 c28 -70 78
-177 110 -238z"/>
<path d="M5630 12009 c-119 -23 -240 -119 -294 -232 -108 -230 11 -502 253
-578 204 -63 417 33 509 231 35 74 43 212 17 291 -46 144 -160 249 -305 283
-72 17 -112 18 -180 5z"/>
<path d="M11710 10999 c-71 -14 -161 -63 -217 -119 -262 -264 -75 -710 297
-710 193 0 347 118 404 309 67 228 -91 475 -334 521 -61 11 -87 11 -150 -1z"/>
<path d="M6667 7636 l-148 -143 66 -61 c146 -137 423 -331 643 -451 412 -224
858 -365 1347 -427 105 -14 211 -18 420 -18 300 0 444 12 705 60 115 21 437
98 446 106 4 5 -108 382 -116 391 -4 4 -58 -5 -121 -22 -575 -151 -1168 -159
-1704 -25 -474 119 -956 364 -1297 659 -48 41 -89 75 -90 74 -2 0 -70 -64
-151 -143z"/>
</g>
</svg>
