<?xml version="1.0" standalone="no"?>
<!DOCTYPE svg PUBLIC "-//W3C//DTD SVG 20010904//EN"
 "http://www.w3.org/TR/2001/REC-SVG-20010904/DTD/svg10.dtd">
<svg version="1.0" xmlns="http://www.w3.org/2000/svg"
 width="576.000000pt" height="576.000000pt" viewBox="0 0 576.000000 576.000000"
 preserveAspectRatio="xMidYMid meet">
<metadata>
Created by potrace 1.14, written by Peter Selinger 2001-2017
</metadata>
<g transform="translate(0.000000,576.000000) scale(0.100000,-0.100000)"
fill="#000000" stroke="none">
<path d="M2475 4759 c-300 -43 -671 -261 -965 -565 -290 -300 -442 -589 -559
-1059 -218 -879 -318 -2144 -198 -2493 20 -57 108 -171 165 -215 26 -19 67
-40 90 -47 80 -21 138 4 268 114 149 126 219 148 319 102 78 -35 106 -34 142
7 71 81 171 428 203 707 6 52 14 114 16 138 l5 43 82 -77 c133 -125 264 -220
427 -309 241 -131 463 -195 680 -195 174 0 322 37 446 111 73 43 207 170 264
248 24 33 46 59 48 56 6 -5 -12 -88 -89 -410 -83 -346 -101 -468 -76 -520 21
-43 59 -69 88 -60 13 4 71 54 130 110 154 147 298 245 362 245 28 0 40 -10 79
-69 32 -48 51 -58 82 -43 31 14 87 99 109 164 81 236 52 831 -89 1868 -63 469
-111 714 -177 905 -204 591 -583 990 -1100 1160 -238 78 -552 113 -752 84z
m1102 -1336 c66 -50 233 -216 233 -233 0 -4 -35 -12 -79 -18 -134 -19 -240
-83 -227 -136 8 -34 28 -33 85 3 70 44 113 54 207 49 99 -5 95 -2 152 -134 66
-151 92 -311 92 -570 0 -350 -58 -632 -180 -875 -157 -316 -394 -479 -694
-479 -354 0 -807 222 -1121 551 -65 68 -73 81 -79 127 -8 60 -54 153 -99 200
-18 18 -60 47 -94 64 -51 25 -76 31 -146 33 -105 4 -163 31 -234 109 -158 172
-103 455 109 562 60 31 141 41 191 25 46 -15 108 -78 164 -163 24 -38 48 -68
52 -68 46 0 123 144 151 281 21 107 36 126 132 175 90 45 179 81 455 180 374
134 542 208 753 333 46 27 89 47 95 44 5 -4 43 -31 82 -60z m-1830 -1509 c130
-62 193 -213 145 -346 -55 -153 -193 -225 -348 -183 -127 34 -207 139 -207
270 1 221 211 354 410 259z"/>
<path d="M2954 3165 c-67 -14 -111 -34 -161 -72 -36 -26 -42 -53 -17 -74 14
-11 26 -8 87 26 59 32 83 39 143 43 89 6 159 -10 219 -50 40 -26 50 -29 71
-20 74 34 -45 129 -191 152 -72 12 -74 12 -151 -5z"/>
<path d="M2991 2982 c-51 -50 -48 -156 4 -208 32 -31 60 -30 94 4 51 50 48
156 -4 208 -32 31 -60 30 -94 -4z"/>
<path d="M3743 2998 c-47 -23 -67 -115 -39 -181 21 -50 49 -70 86 -62 78 17
97 168 30 235 -22 22 -43 24 -77 8z"/>
<path d="M3370 2605 c-10 -12 -5 -35 28 -123 59 -156 83 -248 83 -320 0 -87
-9 -96 -88 -87 -68 7 -93 -2 -93 -35 0 -29 27 -42 98 -48 52 -3 76 0 101 12
37 20 70 82 71 134 0 77 -59 288 -120 430 -18 41 -27 52 -45 52 -12 0 -28 -7
-35 -15z"/>
<path d="M1541 2474 c-21 -15 -23 -23 -18 -63 10 -82 46 -180 72 -197 34 -22
79 -1 83 40 4 33 -33 181 -54 214 -17 26 -50 29 -83 6z"/>
<path d="M2900 1735 c-29 -35 12 -71 130 -116 235 -89 507 -84 639 11 56 41
76 73 61 99 -16 30 -52 26 -86 -10 -50 -54 -105 -72 -232 -77 -151 -6 -290 22
-414 84 -54 28 -81 30 -98 9z"/>
<path d="M1532 1882 c-162 -65 -203 -271 -78 -396 48 -47 98 -67 168 -67 133
0 239 105 239 236 0 174 -169 291 -329 227z"/>
</g>
</svg>
