<?xml version="1.0" standalone="no"?>
<!DOCTYPE svg PUBLIC "-//W3C//DTD SVG 20010904//EN"
 "http://www.w3.org/TR/2001/REC-SVG-20010904/DTD/svg10.dtd">
<svg version="1.0" xmlns="http://www.w3.org/2000/svg"
 width="576.000000pt" height="576.000000pt" viewBox="0 0 576.000000 576.000000"
 preserveAspectRatio="xMidYMid meet">
<metadata>
Created by potrace 1.14, written by Peter Selinger 2001-2017
</metadata>
<g transform="translate(0.000000,576.000000) scale(0.100000,-0.100000)"
fill="#000000" stroke="none">
<path d="M2405 4745 c-487 -113 -1009 -553 -1271 -1072 -169 -332 -316 -1007
-398 -1823 -44 -429 -47 -938 -8 -1116 23 -106 38 -138 103 -220 75 -95 151
-144 221 -144 48 0 126 40 200 103 153 129 209 156 295 137 26 -6 57 -17 68
-24 79 -50 132 -11 194 147 56 140 129 474 147 675 4 39 9 72 11 72 3 0 48
-40 101 -90 249 -231 583 -408 877 -466 104 -20 308 -21 400 -1 203 45 389
169 519 347 31 42 45 56 42 40 -3 -14 -19 -86 -35 -160 -17 -74 -48 -209 -71
-300 -70 -283 -84 -398 -57 -463 37 -88 83 -77 213 50 153 149 303 253 366
253 26 0 30 -4 96 -90 13 -16 32 -30 42 -30 54 0 140 139 160 260 30 180 22
568 -21 1005 -37 372 -124 1036 -168 1277 -129 699 -476 1223 -976 1472 -134
67 -245 106 -396 140 -239 53 -485 61 -654 21z m1153 -1310 c64 -47 196 -175
231 -224 l20 -28 -67 -6 c-143 -12 -284 -101 -242 -152 19 -23 44 -18 116 22
57 31 79 37 143 41 106 6 121 -2 163 -90 77 -158 105 -289 115 -543 20 -541
-135 -1017 -409 -1252 -73 -62 -195 -126 -288 -150 -78 -20 -273 -22 -370 -4
-299 57 -606 230 -873 491 -109 108 -127 129 -127 156 0 17 -7 51 -15 75 -51
146 -189 239 -352 239 -77 0 -126 22 -188 85 -180 179 -130 476 97 580 148 67
223 38 340 -135 57 -83 75 -87 116 -23 48 74 72 137 92 235 11 50 26 98 35
109 42 45 206 116 590 254 127 45 269 99 318 119 110 45 321 152 407 205 36
22 70 40 75 41 6 0 39 -20 73 -45z m-1795 -1529 c55 -32 80 -59 113 -126 38
-76 38 -173 1 -246 -72 -142 -244 -199 -383 -128 -201 102 -209 392 -15 497
92 51 202 52 284 3z"/>
<path d="M2935 3166 c-123 -31 -204 -103 -163 -144 19 -19 45 -14 87 14 109
72 263 71 371 -2 56 -39 90 -29 90 26 0 26 -89 80 -168 102 -76 21 -144 22
-217 4z"/>
<path d="M2991 2982 c-51 -50 -48 -156 4 -208 32 -31 60 -30 94 4 51 50 48
156 -4 208 -32 31 -60 30 -94 -4z"/>
<path d="M3743 2998 c-47 -23 -67 -115 -39 -181 21 -50 49 -70 86 -62 78 17
97 168 30 235 -22 22 -43 24 -77 8z"/>
<path d="M3375 2614 c-21 -22 -19 -34 21 -143 79 -207 104 -350 68 -385 -17
-18 -42 -20 -95 -7 -44 10 -69 -2 -69 -33 0 -37 25 -49 109 -54 75 -4 79 -3
109 24 46 42 59 103 44 205 -11 78 -75 284 -110 358 -20 41 -55 57 -77 35z"/>
<path d="M1530 2475 c-6 -8 -12 -30 -12 -48 0 -55 41 -190 64 -209 38 -33 83
-17 101 35 9 23 -39 196 -60 220 -20 21 -76 23 -93 2z"/>
<path d="M2907 1749 c-10 -6 -17 -22 -17 -38 0 -25 8 -31 78 -64 223 -103 485
-125 645 -53 70 32 132 96 123 129 -10 41 -41 40 -93 -4 -73 -60 -126 -74
-278 -74 -161 1 -214 13 -405 98 -25 11 -41 12 -53 6z"/>
<path d="M1516 1880 c-56 -28 -82 -56 -112 -116 -49 -99 -28 -213 53 -285 50
-45 101 -63 173 -62 136 2 234 107 233 248 -1 98 -58 182 -150 220 -51 21
-149 19 -197 -5z"/>
</g>
</svg>
